<svg width="20" height="20" viewBox="0 0 20 20" fill="none" xmlns="http://www.w3.org/2000/svg">
<path d="M20 10C20 15.5228 15.5228 20 10 20C4.47715 20 0 15.5228 0 10C0 4.47715 4.47715 0 10 0C15.5228 0 20 4.47715 20 10Z" fill="white"/>
<path d="M7.73671 7.15787L6.73671 4.94734C6.63145 4.84208 6.52619 4.73682 6.36829 4.73682H4.10513C3.89461 4.73682 3.68408 4.89471 3.68408 5.10524V5.47366C3.68408 5.73682 3.89461 5.78945 4.10513 5.78945H5.15777C5.31566 5.78945 5.52619 5.99997 5.57882 6.15787L8.26303 11.8421C8.31566 12 8.47356 12.1052 8.63145 12.1052H14.7367C14.9472 12.1052 15.1051 12 15.1578 11.7894L16.1051 7.89471C16.1578 7.63155 15.9472 7.3684 15.6841 7.3684H8.10513C7.94724 7.3684 7.84198 7.26313 7.73671 7.15787Z" fill="#272727"/>
<path d="M8.84194 15.2631C9.42329 15.2631 9.89457 14.7918 9.89457 14.2105C9.89457 13.6291 9.42329 13.1578 8.84194 13.1578C8.26059 13.1578 7.78931 13.6291 7.78931 14.2105C7.78931 14.7918 8.26059 15.2631 8.84194 15.2631Z" fill="#272727"/>
<path d="M14.1051 15.2631C14.6865 15.2631 15.1578 14.7918 15.1578 14.2105C15.1578 13.6291 14.6865 13.1578 14.1051 13.1578C13.5238 13.1578 13.0525 13.6291 13.0525 14.2105C13.0525 14.7918 13.5238 15.2631 14.1051 15.2631Z" fill="#272727"/>
</svg>
