<svg width="20" height="20" viewBox="0 0 20 20" fill="none" xmlns="http://www.w3.org/2000/svg">
<path d="M20 10C20 15.5228 15.5228 20 10 20C4.47715 20 0 15.5228 0 10C0 4.47715 4.47715 0 10 0C15.5228 0 20 4.47715 20 10Z" fill="white"/>
<path d="M5.71715 14.3239H13.2334V5.67395H7.8064C7.75566 5.67983 7.7085 5.70247 7.67279 5.73811C7.03501 6.40683 6.40192 7.07979 5.77356 7.75695C5.7374 7.80454 5.71796 7.86223 5.71814 7.92145L5.71715 14.3239ZM13.9851 4.21083C14.4008 4.21083 14.7368 4.53886 14.7368 4.94408V15.0566C14.7368 15.4618 14.4003 15.7894 13.9846 15.7894H4.96597C4.5503 15.7894 4.2138 15.4614 4.2138 15.0566C4.21331 14.977 4.21281 7.93351 4.21083 7.65517C4.20707 7.52 4.23114 7.38547 4.28163 7.25952C4.33212 7.13358 4.40799 7.01878 4.50477 6.92192L6.7692 4.51571C6.85666 4.41663 6.96572 4.33785 7.0884 4.28511C7.21108 4.23236 7.34429 4.20698 7.47832 4.21083H13.9851ZM7.22001 9.30932C7.0636 9.30494 6.9151 9.2413 6.80606 9.1319C6.69701 9.0225 6.63601 8.87598 6.63601 8.72344C6.63601 8.5709 6.69701 8.42438 6.80606 8.31498C6.9151 8.20559 7.0636 8.14194 7.22001 8.13757H8.24336V7.139C8.24966 6.98766 8.31576 6.84457 8.42782 6.73967C8.53989 6.63477 8.68923 6.57618 8.8446 6.57618C8.99996 6.57618 9.14931 6.63477 9.26137 6.73967C9.37344 6.84457 9.43954 6.98766 9.44584 7.139V8.7232C9.44584 9.04641 9.17615 9.30932 8.8446 9.30932H7.22001Z" fill="#272727"/>
</svg>
