<svg width="20" height="20" viewBox="0 0 20 20" fill="none" xmlns="http://www.w3.org/2000/svg">
<path d="M20 10C20 15.5228 15.5228 20 10 20C4.47715 20 0 15.5228 0 10C0 4.47715 4.47715 0 10 0C15.5228 0 20 4.47715 20 10Z" fill="white"/>
<path d="M12.018 5.00222V5H12.5807L12.7863 5.04218C12.9234 5.06956 13.0478 5.10544 13.1596 5.14983C13.2714 5.19423 13.3796 5.24603 13.4842 5.30522C13.5888 5.36441 13.6837 5.42472 13.7688 5.48613C13.8532 5.5468 13.929 5.61118 13.996 5.67925C14.0624 5.74806 14.1659 5.76582 14.3066 5.73252C14.4473 5.69922 14.5987 5.65297 14.761 5.59378C14.9234 5.53459 15.0839 5.468 15.2426 5.39401C15.4013 5.32001 15.4979 5.27303 15.5326 5.25305C15.5665 5.23234 15.5845 5.22124 15.5867 5.21976L15.5888 5.21643L15.5996 5.21088L15.6105 5.20533L15.6213 5.19978L15.6321 5.19423L15.6343 5.1909L15.6375 5.18868L15.6408 5.18646L15.6429 5.18313L15.6537 5.1798L15.6646 5.17758L15.6624 5.19423L15.6592 5.21088L15.6537 5.22752L15.6483 5.24417L15.6429 5.25527L15.6375 5.26637L15.6321 5.28302C15.6285 5.29412 15.6249 5.30891 15.6213 5.32741C15.6177 5.34592 15.5834 5.4199 15.5185 5.54939C15.4536 5.67888 15.3724 5.81021 15.275 5.9434C15.1776 6.07658 15.0904 6.1772 15.0132 6.24528C14.9353 6.3141 14.8837 6.36219 14.8584 6.38957C14.8332 6.41768 14.8025 6.44357 14.7665 6.46726L14.7124 6.50388L14.7015 6.50943L14.6907 6.51498L14.6886 6.51831L14.6853 6.52053L14.6821 6.52275L14.6799 6.52608L14.6691 6.53163L14.6583 6.53718L14.6561 6.54051L14.6528 6.54273L14.6496 6.54495L14.6474 6.54828L14.6453 6.55161L14.642 6.55383L14.6388 6.55605L14.6366 6.55938H14.6907L14.9937 6.49279C15.1957 6.44839 15.3886 6.39475 15.5726 6.33185L15.8647 6.23196L15.8972 6.22087L15.9134 6.21532L15.9243 6.20977L15.9351 6.20422L15.9459 6.19867L15.9567 6.19312L15.9784 6.18979L16 6.18757V6.20977L15.9946 6.21199L15.9892 6.21532L15.987 6.21865L15.9838 6.22087L15.9805 6.22309L15.9784 6.22642L15.9762 6.22974L15.9729 6.23196L15.9697 6.23418L15.9675 6.23751L15.9654 6.24084L15.9621 6.24306L15.9567 6.25416L15.9513 6.26526L15.9481 6.26748C15.9466 6.2697 15.9008 6.33259 15.8106 6.45616C15.7205 6.58047 15.6718 6.64335 15.6646 6.64484C15.6574 6.64706 15.6472 6.65816 15.6343 6.67814C15.622 6.69885 15.5455 6.78135 15.4049 6.92564C15.2642 7.06992 15.1264 7.19829 14.9915 7.31077C14.8559 7.42397 14.7874 7.56307 14.7859 7.72808C14.7838 7.89234 14.7755 8.07807 14.761 8.28524C14.7466 8.49242 14.7196 8.71624 14.6799 8.95671C14.6402 9.19719 14.5789 9.46911 14.4959 9.77247C14.413 10.0758 14.312 10.3718 14.193 10.6604C14.0739 10.9489 13.9495 11.2079 13.8197 11.4373C13.6898 11.6667 13.5708 11.8609 13.4626 12.02C13.3544 12.1791 13.2444 12.3289 13.1326 12.4695C13.0207 12.6101 12.8794 12.7684 12.7084 12.9445C12.5367 13.1199 12.4429 13.2161 12.4271 13.2331C12.4105 13.2494 12.3398 13.31 12.215 13.4151C12.0909 13.5209 11.9574 13.6267 11.8146 13.7325C11.6725 13.8376 11.5419 13.9253 11.4229 13.9956C11.3039 14.0658 11.1603 14.1461 10.9922 14.2364C10.8249 14.3274 10.6438 14.4118 10.4491 14.4895C10.2543 14.5671 10.0487 14.6393 9.83228 14.7059C9.61587 14.7725 9.40668 14.8243 9.20469 14.8613C9.00271 14.8983 8.77367 14.9297 8.51758 14.9556L8.13345 14.9945V15H7.43012V14.9945L7.33814 14.9889C7.27683 14.9852 7.22633 14.9815 7.18665 14.9778C7.14699 14.9741 6.99729 14.9538 6.7376 14.9168C6.47791 14.8798 6.27412 14.8428 6.12624 14.8058C5.97837 14.7688 5.75834 14.6985 5.46619 14.5949C5.17403 14.4913 4.92408 14.3866 4.71632 14.2808C4.50929 14.1757 4.37944 14.1091 4.32678 14.081C4.27484 14.0536 4.21641 14.0196 4.15149 13.9789L4.0541 13.9179L4.05195 13.9145L4.04869 13.9123L4.04545 13.9101L4.04328 13.9068L4.03246 13.9012L4.02164 13.8957L4.01949 13.8923L4.01623 13.8901L4.01298 13.8879L4.01082 13.8846L4.00867 13.8812L4.00541 13.879H4V13.8568L4.01082 13.859L4.02164 13.8624L4.07033 13.8679C4.1028 13.8716 4.19117 13.8772 4.33544 13.8846C4.47972 13.892 4.633 13.892 4.79531 13.8846C4.95762 13.8772 5.12354 13.8605 5.29306 13.8346C5.46258 13.8087 5.66276 13.7643 5.8936 13.7014C6.12444 13.6385 6.33653 13.5638 6.52986 13.4772C6.72246 13.3899 6.85952 13.3248 6.94104 13.2819C7.02183 13.2397 7.14518 13.1613 7.31109 13.0466L7.55996 12.8746L7.56213 12.8713L7.56537 12.869L7.56863 12.8668L7.57078 12.8635L7.57295 12.8602L7.57619 12.8579L7.57945 12.8557L7.58161 12.8524L7.59243 12.8491L7.60325 12.8468L7.60541 12.8357L7.60866 12.8246L7.61191 12.8224L7.61407 12.8191L7.5275 12.8135C7.4698 12.8098 7.41389 12.8061 7.35978 12.8024C7.30568 12.7987 7.22092 12.7821 7.1055 12.7525C6.99009 12.7229 6.86565 12.6785 6.73219 12.6193C6.59874 12.5601 6.46889 12.4898 6.34265 12.4084C6.21642 12.327 6.12516 12.2593 6.06889 12.2053C6.01335 12.152 5.94121 12.0766 5.85248 11.9789C5.76448 11.8805 5.68801 11.7795 5.62308 11.6759C5.55816 11.5723 5.49613 11.4528 5.43698 11.3174L5.34716 11.1154L5.34175 11.0988L5.33634 11.0821L5.33309 11.071L5.33093 11.0599L5.34716 11.0622L5.36339 11.0655L5.48242 11.0821C5.56177 11.0932 5.68621 11.0969 5.85573 11.0932C6.02525 11.0895 6.14247 11.0821 6.20739 11.071C6.27232 11.0599 6.312 11.0525 6.32642 11.0488L6.34806 11.0433L6.37511 11.0377L6.40216 11.0322L6.40433 11.0289L6.40757 11.0266L6.41083 11.0244L6.41298 11.0211L6.39134 11.0155L6.3697 11.01L6.34806 11.0044L6.32642 10.9989L6.30478 10.9933C6.29036 10.9896 6.26511 10.9822 6.22904 10.9711C6.19297 10.96 6.09559 10.9193 5.93688 10.8491C5.77819 10.7788 5.65194 10.7103 5.55816 10.6437C5.46415 10.5769 5.3745 10.5039 5.28981 10.4251C5.20541 10.3452 5.11272 10.2423 5.01172 10.1165C4.91073 9.99075 4.82057 9.84462 4.74121 9.67814C4.66186 9.51165 4.60235 9.35257 4.56267 9.20089C4.52315 9.05009 4.49708 8.89593 4.48477 8.74029L4.46528 8.50721L4.4761 8.50943L4.48693 8.51276L4.49775 8.51831L4.50857 8.52386L4.51939 8.52941L4.53021 8.53496L4.69793 8.61265C4.80975 8.66445 4.94861 8.70885 5.11452 8.74584C5.28044 8.78283 5.37962 8.80319 5.41208 8.80688L5.46078 8.81243H5.55816L5.55601 8.8091L5.55275 8.80688L5.5495 8.80466L5.54734 8.80133L5.54519 8.798L5.54193 8.79578L5.53868 8.79356L5.53652 8.79023L5.5257 8.78468L5.51488 8.77913L5.51272 8.7758L5.50947 8.77358L5.50622 8.77136L5.50406 8.76804L5.49324 8.76249L5.48242 8.75694L5.48026 8.75361C5.4781 8.75212 5.44708 8.72845 5.3872 8.68257C5.32804 8.63596 5.26601 8.57566 5.20108 8.50166C5.13616 8.42767 5.07124 8.34998 5.00631 8.26859C4.94127 8.18702 4.88334 8.09974 4.83318 8.00777C4.78269 7.91528 4.72931 7.79762 4.67304 7.65483C4.6175 7.51276 4.5753 7.36959 4.54644 7.22531C4.51759 7.08102 4.50136 6.93859 4.49775 6.798C4.49414 6.65741 4.49775 6.53718 4.50857 6.43729C4.51939 6.3374 4.54103 6.22456 4.57349 6.09878C4.60595 5.973 4.65285 5.83981 4.71416 5.69922L4.80613 5.48835L4.81154 5.4717L4.81695 5.45505L4.82021 5.45283L4.82236 5.4495L4.82453 5.44617L4.82777 5.44395L4.83103 5.44617L4.83318 5.4495L4.83535 5.45283L4.83859 5.45505L4.84185 5.45727L4.844 5.4606L4.84617 5.46393L4.84941 5.46615L4.85482 5.47725L4.86023 5.48835L4.86349 5.49057L4.86564 5.4939L5.01172 5.66038C5.10911 5.77137 5.22453 5.89531 5.35798 6.03219C5.49144 6.16907 5.56538 6.2401 5.5798 6.24528C5.59424 6.2512 5.61226 6.26821 5.6339 6.29634C5.65555 6.32372 5.72769 6.3892 5.85032 6.49279C5.97296 6.59637 6.13346 6.71661 6.33183 6.8535C6.53021 6.99038 6.75023 7.12542 6.99188 7.2586C7.23355 7.39179 7.49324 7.51202 7.77096 7.61931C8.0487 7.7266 8.24347 7.79689 8.35528 7.83019C8.46709 7.86348 8.65825 7.90603 8.92876 7.95782C9.19928 8.00962 9.40307 8.04292 9.54013 8.05771C9.67719 8.07251 9.77097 8.08102 9.82146 8.08324L9.8972 8.08546L9.89505 8.06881L9.89179 8.05216L9.87015 7.91343C9.85573 7.82094 9.84851 7.69145 9.84851 7.52497C9.84851 7.35849 9.86114 7.20496 9.88638 7.06437C9.91164 6.92378 9.94951 6.78135 10 6.63707C10.0505 6.49279 10.0999 6.37698 10.1482 6.28968C10.1973 6.20311 10.2615 6.10433 10.3408 5.99334C10.4202 5.88235 10.523 5.76767 10.6492 5.64928C10.7755 5.53089 10.9197 5.42545 11.0821 5.33296C11.2444 5.24048 11.3941 5.17018 11.5311 5.12209C11.6682 5.074 11.7836 5.04254 11.8774 5.02775C11.9711 5.01295 12.018 5.00444 12.018 5.00222Z" fill="#272727"/>
</svg>
