<svg width="128" height="74" viewBox="0 0 128 74" fill="none" xmlns="http://www.w3.org/2000/svg">
<path d="M119.408 72.3878L120.897 70.579C121.615 71.2426 122.536 71.6389 123.507 71.7025C124.468 71.7025 124.918 71.3374 124.918 70.7475C124.918 70.1577 124.323 69.9105 123.39 69.5116L122.013 68.9499C121.378 68.7493 120.822 68.3516 120.423 67.8131C120.024 67.2746 119.803 66.6228 119.791 65.9501C119.791 64.1132 121.419 62.6414 123.712 62.6414C125.023 62.6478 126.28 63.1696 127.217 64.0963L125.923 65.7254C125.3 65.1955 124.515 64.8997 123.701 64.8884C122.902 64.8884 122.418 65.2086 122.418 65.7872C122.418 66.3658 123.09 66.6354 124.046 67.0231L125.401 67.5848C126.734 68.1466 127.528 69.0398 127.528 70.5846C127.528 72.4103 126.023 74.0001 123.407 74.0001C121.918 73.9946 120.484 73.4323 119.38 72.4215L119.408 72.3878Z" fill="#272727"/>
<path d="M0.000190963 12.252C-0.000146052 12.0956 0.031788 11.9409 0.0939502 11.7977C0.156112 11.6546 0.247134 11.5261 0.361191 11.4206C0.613095 11.1917 0.938993 11.0638 1.27758 11.061H14.7123C30.3187 11.061 40.6266 18.1223 40.6266 34.7559C40.6266 51.3896 30.3187 58.9115 15.401 58.9115H1.28313C0.94435 58.9097 0.618098 58.7817 0.366745 58.552C0.248992 58.4479 0.155164 58.3191 0.0918432 58.1745C0.028522 58.0299 -0.00276002 57.8731 0.000190963 57.7149V12.252ZM13.957 47.9123C22.2156 47.9123 28.0472 44.5417 28.0472 33.7055C28.0472 22.8692 22.2156 19.8357 13.957 19.8357H13.5849C13.2537 19.8329 12.9324 19.9505 12.6796 20.1671C12.5642 20.2673 12.4712 20.3913 12.407 20.5308C12.3428 20.6704 12.3089 20.8222 12.3075 20.976V46.7719C12.3089 46.9258 12.3428 47.0776 12.407 47.2171C12.4712 47.3567 12.5642 47.4807 12.6796 47.5808C12.9324 47.7974 13.2537 47.915 13.5849 47.9123H13.957Z" fill="black"/>
<path d="M57.2048 11.0608H67.0018C67.3347 11.0582 67.6577 11.1757 67.9126 11.3923C68.0274 11.4918 68.12 11.6149 68.1841 11.7534C68.2483 11.8919 68.2826 12.0427 68.2847 12.1956V57.7709C68.2826 57.9238 68.2483 58.0746 68.1841 58.2131C68.12 58.3516 68.0274 58.4747 67.9126 58.5742C67.6577 58.7908 67.3347 58.9083 67.0018 58.9057H57.2048C56.8719 58.9083 56.549 58.7908 56.294 58.5742C56.1792 58.4747 56.0867 58.3516 56.0225 58.2131C55.9583 58.0746 55.924 57.9238 55.9219 57.7709V12.1956C55.924 12.0427 55.9583 11.8919 56.0225 11.7534C56.0867 11.6149 56.1792 11.4918 56.294 11.3923C56.549 11.1757 56.8719 11.0582 57.2048 11.0608Z" fill="black"/>
<path d="M79.4927 34.7335C79.4927 19.611 89.1286 11.061 103.335 11.061C117.542 11.061 127.184 19.6615 127.184 34.7335C127.184 49.8054 117.542 58.889 103.335 58.889C89.1286 58.889 79.4927 49.856 79.4927 34.7335ZM114.482 34.7335C114.482 25.8072 110.217 20.5435 103.374 20.5435C96.5319 20.5435 92.3276 25.8072 92.3276 34.7335C92.3276 43.6598 96.5208 49.3672 103.374 49.3672C110.228 49.3672 114.454 43.671 114.454 34.7335H114.482Z" fill="black"/>
<path d="M0.000488281 62.8102H3.11065C6.40964 62.8102 8.58675 64.428 8.58675 68.2368C8.58675 72.0455 6.40964 73.7532 3.2606 73.7532H0.000488281V62.8102ZM2.94958 71.6466C4.68794 71.6466 5.92645 70.8433 5.92645 68.2311C5.92645 65.619 4.68794 64.9112 2.94958 64.9112H2.59414V71.6522L2.94958 71.6466Z" fill="#272727"/>
<path d="M10.0918 68.2367C10.0918 64.6471 12.0912 62.6191 15.0403 62.6191C17.9894 62.6191 19.9888 64.6639 19.9888 68.2367C19.9888 71.8095 17.9838 73.9722 15.0458 73.9722C12.1078 73.9722 10.0918 71.8263 10.0918 68.2367ZM17.3507 68.2367C17.3507 66.1189 16.4676 64.8662 15.0458 64.8662C13.624 64.8662 12.7521 66.1189 12.7521 68.2367C12.7521 70.3545 13.6185 71.7084 15.0458 71.7084C16.4732 71.7084 17.3451 70.3545 17.3451 68.2367H17.3507Z" fill="#272727"/>
<path d="M25.3149 62.8101H27.9086V73.7643H25.3149V62.8101Z" fill="#272727"/>
<path d="M32.4846 65.0009H29.5688V62.8101H38.0218V65.0009H35.0838V73.7643H32.4902L32.4846 65.0009Z" fill="#272727"/>
<path d="M42.5151 68.2367C42.5151 64.6471 44.5201 62.6191 47.4692 62.6191C50.4183 62.6191 52.4177 64.6639 52.4177 68.2367C52.4177 71.8095 50.4127 73.9722 47.4692 73.9722C44.5256 73.9722 42.5151 71.8263 42.5151 68.2367ZM49.7796 68.2367C49.7796 66.1189 48.891 64.8662 47.4692 64.8662C46.0474 64.8662 45.1754 66.1189 45.1754 68.2367C45.1754 70.3545 46.0474 71.7084 47.4692 71.7084C48.891 71.7084 49.7796 70.3545 49.7796 68.2367Z" fill="#6B8EF0"/>
<path d="M54.3613 68.6186V62.8101H56.955V68.8995C56.955 70.9724 57.5659 71.7083 58.76 71.7083C59.9541 71.7083 60.5872 70.9724 60.5872 68.8995V62.8101H63.0809V68.6186C63.0809 72.2981 61.6313 73.9722 58.76 73.9722C55.8886 73.9722 54.3613 72.3094 54.3613 68.6186Z" fill="#6B8EF0"/>
<path d="M65.4968 62.8101H69.4623C71.7671 62.8101 73.6832 63.6134 73.6832 66.2649C73.728 66.9187 73.5744 67.5708 73.2429 68.134C72.9114 68.6971 72.4179 69.1445 71.8282 69.4163L74.233 73.7587H71.3284L69.3401 69.9051H68.0905V73.7587H65.4968V62.8101ZM69.2512 67.8659C70.4897 67.8659 71.1562 67.3041 71.1562 66.293C71.1562 65.2818 70.4897 64.9223 69.2512 64.9223H68.096V67.8659H69.2512Z" fill="#6B8EF0"/>
<path d="M74.8608 72.3991L76.3437 70.5902C77.0623 71.2538 77.9829 71.6501 78.954 71.7137C79.9092 71.7137 80.3646 71.343 80.3646 70.7587C80.3646 70.1745 79.7704 69.9161 78.8373 69.5229L77.46 68.9611C76.8302 68.7557 76.28 68.3559 75.8865 67.8178C75.493 67.2798 75.2761 66.6305 75.2662 65.9613C75.2662 64.1188 76.8935 62.6526 79.1872 62.6526C80.4993 62.6543 81.7588 63.1744 82.6973 64.1019L81.4032 65.7254C80.7849 65.1849 79.9988 64.8808 79.1817 64.8659C78.3819 64.8659 77.9043 65.1861 77.9043 65.7647C77.9043 66.3433 78.5708 66.613 79.5316 67.0006L80.8756 67.5623C82.2141 68.1241 83.0138 69.0229 83.0138 70.5677C83.0138 72.3878 81.5032 73.9832 78.8929 73.9832C77.4036 73.9846 75.9661 73.4305 74.8552 72.4272L74.8608 72.3991Z" fill="#272727"/>
<path d="M84.8132 62.8101H91.6667V65.0009H87.4069V67.0289H91.0391V69.2366H87.4069V71.5622H91.8166V73.7643H84.8132V62.8101Z" fill="#272727"/>
<path d="M93.9661 62.8101H96.5597V71.5622H100.764V73.7643H93.9661V62.8101Z" fill="#272727"/>
<path d="M99.9697 62.8101H102.713L103.941 67.8041C104.263 68.9781 104.496 70.096 104.785 71.3038H104.857C105.179 70.096 105.413 68.9781 105.701 67.8041L106.923 62.8101H109.561L106.323 73.7643H103.213L99.9697 62.8101Z" fill="#272727"/>
<path d="M110.655 62.8101H117.509V65.0009H113.254V67.0289H116.87V69.2366H113.254V71.5622H117.664V73.7643H110.661L110.655 62.8101Z" fill="#272727"/>
<path d="M114.671 1.12354L111.894 9.842L116.653 11.3981L119.43 2.67398L114.671 1.12354Z" fill="#6B8EF0"/>
<path d="M104.218 0L103.935 9.16226L108.934 9.32516L109.217 0.162909L104.218 0Z" fill="#6B8EF0"/>
<path d="M123.973 5.05615L118.608 12.432L122.635 15.443L128 8.07279L123.973 5.05615Z" fill="#6B8EF0"/>
</svg>
