<svg width="231" height="132" viewBox="0 0 231 132" fill="none" xmlns="http://www.w3.org/2000/svg">
<path d="M76.5503 121.47C76.5503 115.08 80.1603 111.47 85.4703 111.47C90.7803 111.47 94.3803 115.11 94.3803 121.47C94.3803 127.83 90.7703 131.68 85.4703 131.68C80.1703 131.68 76.5503 127.86 76.5503 121.47ZM89.6303 121.47C89.6303 117.7 88.0303 115.47 85.4703 115.47C82.9103 115.47 81.3403 117.7 81.3403 121.47C81.3403 125.24 82.9103 127.65 85.4703 127.65C88.0303 127.65 89.6303 125.24 89.6303 121.47Z" fill="#6B8EF0"/>
<path d="M97.8804 122.15V111.81H102.55V122.65C102.55 126.34 103.65 127.65 105.8 127.65C107.95 127.65 109.09 126.34 109.09 122.65V111.81H113.58V122.15C113.58 128.7 110.97 131.68 105.8 131.68C100.63 131.68 97.8804 128.72 97.8804 122.15Z" fill="#6B8EF0"/>
<path d="M117.93 111.81H125.07C129.22 111.81 132.67 113.24 132.67 117.96C132.751 119.124 132.474 120.285 131.878 121.287C131.281 122.29 130.392 123.086 129.33 123.57L133.66 131.3H128.43L124.85 124.44H122.6V131.3H117.93V111.81ZM124.69 120.81C126.92 120.81 128.12 119.81 128.12 118.01C128.12 116.21 126.92 115.57 124.69 115.57H122.61V120.81H124.69Z" fill="#6B8EF0"/>
<path d="M215 128.86L217.68 125.64C218.974 126.821 220.632 127.527 222.38 127.64C224.11 127.64 224.92 126.99 224.92 125.94C224.92 124.89 223.85 124.45 222.17 123.74L219.69 122.74C218.547 122.383 217.545 121.675 216.827 120.716C216.109 119.758 215.711 118.597 215.69 117.4C215.69 114.13 218.62 111.51 222.75 111.51C225.11 111.522 227.373 112.45 229.06 114.1L226.73 117C225.609 116.057 224.196 115.53 222.73 115.51C221.29 115.51 220.42 116.08 220.42 117.11C220.42 118.14 221.63 118.62 223.35 119.31L225.79 120.31C228.19 121.31 229.62 122.9 229.62 125.65C229.62 128.9 226.91 131.73 222.2 131.73C219.52 131.72 216.937 130.719 214.95 128.92L215 128.86Z" fill="white"/>
<path d="M0.000343839 22.121C-0.000262975 21.8426 0.057236 21.5672 0.169162 21.3124C0.281088 21.0575 0.444977 20.8289 0.650344 20.641C1.10391 20.2336 1.69071 20.006 2.30034 20.001H26.4903C54.5903 20.001 73.1503 32.571 73.1503 62.181C73.1503 91.791 54.5903 105.181 27.7303 105.181H2.31034C1.70035 105.178 1.11292 104.95 0.660344 104.541C0.448322 104.356 0.279381 104.126 0.165368 103.869C0.0513553 103.612 -0.00496955 103.332 0.000343839 103.051V22.121ZM25.1303 85.601C40.0003 85.601 50.5003 79.601 50.5003 60.311C50.5003 41.021 40.0003 35.621 25.1303 35.621H24.4603C23.8639 35.6161 23.2855 35.8254 22.8303 36.211C22.6224 36.3893 22.455 36.6101 22.3395 36.8584C22.2239 37.1068 22.1628 37.377 22.1603 37.651V83.571C22.1628 83.8449 22.2239 84.1151 22.3395 84.3635C22.455 84.6119 22.6224 84.8326 22.8303 85.011C23.2855 85.3965 23.8639 85.6059 24.4603 85.601H25.1303Z" fill="white"/>
<path d="M103 20.0001H120.64C121.24 19.9954 121.821 20.2046 122.28 20.5901C122.487 20.7673 122.654 20.9865 122.769 21.233C122.885 21.4795 122.947 21.7478 122.95 22.0201V103.15C122.947 103.422 122.885 103.691 122.769 103.937C122.654 104.184 122.487 104.403 122.28 104.58C121.821 104.966 121.24 105.175 120.64 105.17H103C102.401 105.175 101.82 104.966 101.36 104.58C101.154 104.403 100.987 104.184 100.872 103.937C100.756 103.691 100.694 103.422 100.69 103.15V22.0201C100.694 21.7478 100.756 21.4795 100.872 21.233C100.987 20.9865 101.154 20.7673 101.36 20.5901C101.82 20.2046 102.401 19.9954 103 20.0001Z" fill="white"/>
<path d="M143.13 62.141C143.13 35.221 160.48 20.001 186.06 20.001C211.64 20.001 229 35.311 229 62.141C229 88.971 211.64 105.141 186.06 105.141C160.48 105.141 143.13 89.061 143.13 62.141ZM206.13 62.141C206.13 46.251 198.45 36.881 186.13 36.881C173.81 36.881 166.24 46.251 166.24 62.141C166.24 78.031 173.79 88.191 186.13 88.191C198.47 88.191 206.08 78.051 206.08 62.141H206.13Z" fill="white"/>
<path d="M0.000488281 111.81H5.60049C11.5405 111.81 15.4605 114.69 15.4605 121.47C15.4605 128.25 11.5405 131.29 5.87049 131.29H0.000488281V111.81ZM5.31049 127.54C8.44049 127.54 10.6705 126.11 10.6705 121.46C10.6705 116.81 8.44049 115.55 5.31049 115.55H4.67049V127.55L5.31049 127.54Z" fill="white"/>
<path d="M18.1704 121.47C18.1704 115.08 21.7704 111.47 27.0804 111.47C32.3904 111.47 35.9904 115.11 35.9904 121.47C35.9904 127.83 32.3804 131.68 27.0904 131.68C21.8004 131.68 18.1704 127.86 18.1704 121.47ZM31.2404 121.47C31.2404 117.7 29.6504 115.47 27.0904 115.47C24.5304 115.47 22.9604 117.7 22.9604 121.47C22.9604 125.24 24.5204 127.65 27.0904 127.65C29.6604 127.65 31.2304 125.24 31.2304 121.47H31.2404Z" fill="white"/>
<path d="M45.5803 111.81H50.2503V131.31H45.5803V111.81Z" fill="white"/>
<path d="M58.4902 115.71H53.2402V111.81H68.4602V115.71H63.1702V131.31H58.5002L58.4902 115.71Z" fill="white"/>
<path d="M134.79 128.88L137.46 125.66C138.754 126.841 140.412 127.547 142.16 127.66C143.88 127.66 144.7 127 144.7 125.96C144.7 124.92 143.63 124.46 141.95 123.76L139.47 122.76C138.336 122.394 137.346 121.683 136.637 120.725C135.929 119.767 135.538 118.611 135.52 117.42C135.52 114.14 138.45 111.53 142.58 111.53C144.943 111.533 147.211 112.459 148.9 114.11L146.57 117C145.457 116.038 144.042 115.496 142.57 115.47C141.13 115.47 140.27 116.04 140.27 117.07C140.27 118.1 141.47 118.58 143.2 119.27L145.62 120.27C148.03 121.27 149.47 122.87 149.47 125.62C149.47 128.86 146.75 131.7 142.05 131.7C139.369 131.702 136.78 130.716 134.78 128.93L134.79 128.88Z" fill="white"/>
<path d="M152.71 111.81H165.05V115.71H157.38V119.32H163.92V123.25H157.38V127.39H165.32V131.31H152.71V111.81Z" fill="white"/>
<path d="M169.19 111.81H173.86V127.39H181.43V131.31H169.19V111.81Z" fill="white"/>
<path d="M180 111.81H184.94L187.15 120.7C187.73 122.79 188.15 124.78 188.67 126.93H188.8C189.38 124.78 189.8 122.79 190.32 120.7L192.52 111.81H197.27L191.44 131.31H185.84L180 111.81Z" fill="white"/>
<path d="M199.24 111.81H211.58V115.71H203.92V119.32H210.43V123.25H203.92V127.39H211.86V131.31H199.25L199.24 111.81Z" fill="white"/>
<path d="M206.47 2L201.47 17.52L210.04 20.29L215.04 4.76L206.47 2Z" fill="#6B8EF0"/>
<path d="M187.65 0L187.14 16.31L196.14 16.6L196.65 0.29L187.65 0Z" fill="#6B8EF0"/>
<path d="M223.22 9L213.56 22.13L220.81 27.49L230.47 14.37L223.22 9Z" fill="#6B8EF0"/>
</svg>
